<svg xmlns="http://www.w3.org/2000/svg" version="1.1" xmlns:xlink="http://www.w3.org/1999/xlink" width="495.82" height="471.8"><svg xmlns="http://www.w3.org/2000/svg" version="1.1" xmlns:xlink="http://www.w3.org/1999/xlink" width="495.82" height="471.8"><svg id="Layer_2" data-name="Layer 2" xmlns="http://www.w3.org/2000/svg" viewBox="0 0 495.82 471.8"><defs><style>.cls-1{fill:#b59410;}</style></defs><path class="cls-1" d="M233.39.2C139.3,2.46,53,50.47,17.83,140.55A251.69,251.69,0,0,0,.12,240.65v0h0C3.07,333.18,59.4,416.89,153.55,454c155.73,62.15,342-44.68,342.27-218.08C496.16,100.36,364-5.07,233.38.19Zm254,235.69c0,2.6-.07,5.19-.18,7.76a166.91,166.91,0,0,1-12.85,26.49A52.67,52.67,0,0,0,470,235.71a73.88,73.88,0,0,0-11.67-17,157.13,157.13,0,0,0-3.71-47.56,195.26,195.26,0,0,1,20.08,37.9c1.11,3.09,2.33,6.51,3.48,9.57A158.63,158.63,0,0,0,460,167.12c-3.39-4.79-7-9.43-10.75-13.93-6.08-16.19-15.55-31.67-29.15-42.5a169.19,169.19,0,0,1,16.42,28.68,169.77,169.77,0,0,0-13.78-12.21,176.14,176.14,0,0,1,17.19,20.41A162.1,162.1,0,0,1,451,206c0,1.8,0,3.6-.09,5.41-2.53-2.3-5.15-4.49-7.82-6.59-9.22-7.23-22.66-17-32.14-24.17-3.67-2.75-10.49-7.83-14.12-10.48-.43-.32-1-.79-1.43-1.17s-1.28-.86-2-.23a1.33,1.33,0,0,0-.24,1.34c5.41,5.79,10.54,12.44,11.45,20.58a60.78,60.78,0,0,1,.67,8c.75-7.74-.3-15.87-4.72-22.42l.63.52c12,9.83,27.05,21.85,39,31.56a125.3,125.3,0,0,1,10.3,9.37c-2,26.58-11.07,53.14-29,72.92,1.84-26.75-3.18-53.89-15.81-76.81a146.93,146.93,0,0,0-30.36-38.1c2.08-1.69,4.15-3.41,6.19-5.16a189.51,189.51,0,0,0,25.31-26.21c5.77-7.42,10.19-16.44,11.18-26,1.86-20.11-7.29-41.15-20.35-57.48,53.7,41.79,90.27,104.26,89.64,175ZM327.81,420a129.49,129.49,0,0,1-19.57,2.27c-24.51.45-49.15-1.93-72.84-8.34-12-2.93-23.19-7.9-34.46-12.92-11.66-4.66-24-8-36.51-8.73A217.64,217.64,0,0,1,199,405.47c5.55,2.7,11.09,5.82,16.85,8.19,24,10.14,50,14.32,75.87,15.24-26.69,7.58-54,12.69-81.77,9.16C142.76,431,81.2,378.43,51.83,319.18c-3.08-6-5.85-12.24-8.61-18.46L40,276.31l.77,19c-1.57-3.51-3.16-7-4.82-10.48-1.41-2.93-5-10.2-9.23-18.66C36.26,273,48,276.38,60,278.16l.18.17.12-.13c3.57.52,7.17.91,10.74,1.22,9.45,26.61,24.25,51.11,45,71.09,53.62,49.87,136.75,57.57,203.34,31.59,26-10,50.71-24.86,68.76-46.47q6-1,12-2.36,2.34-.54,4.62-1.14c-13.44,35-40.35,63.78-74.29,86.16L327.81,420Zm-19.44,9.07c1.83-.06,3.67-.17,5.51-.3a134.68,134.68,0,0,1-17.55,8.84C276,445.21,253.76,449.69,232,447.86a55.7,55.7,0,0,1-18.17-4.77l2,.14c27.07,1.27,54.88-3.09,79.67-14.2q6.45.15,12.88.06ZM25.48,200.45c.07,1.1.14,2.19.23,3.28,2.32,25.13,11.2,50.62,28.77,69.12-11.81-2-22.57-5.68-30.49-12.21-5.42-10.88-11.23-22.53-14.46-29a97.61,97.61,0,0,1,5.52-13.92,107.63,107.63,0,0,1,10.42-17.22Zm175.13,70c27.82,29.37,63.81,51.2,103.27,60.64,23.45,5.52,47.84,8.13,71.85,6a139.69,139.69,0,0,1-22.52,18.4C284.57,400,183.82,401.3,121.84,344.34,103,326.2,89.21,304.1,80.12,280l4,.21a469,469,0,0,0,71.87-3.6,366.14,366.14,0,0,0,42.72-8.3c.65.7,1.27,1.42,1.93,2.11Zm-81,2.67c-11.42.72-26.3,1.95-41.39,1.69-12.37-35.74-14.77-75.39-8.76-112.6a244,244,0,0,1,63.29-24.91q.3,3.21.76,6.46c3,24.17,12.41,47.47,24.67,68.23,10,17.14,21.1,34,34.07,49.15a398.58,398.58,0,0,1-72.64,12Zm72.54-26.73c-9.45-12.37-17.73-25.71-25.77-39.2s-14.83-27.33-19.33-42.09a153.59,153.59,0,0,1-6-29.7,293.85,293.85,0,0,1,78.07-5.51c34.81,2.24,69.92,8,102.09,21.71a169.72,169.72,0,0,1,40.48,23.87c-4.57,3.31-9.22,6.53-13.89,9.71-29.26,19.94-59.44,38.94-91.8,53.37a395.23,395.23,0,0,1-53.93,19.89q-5.19-5.85-10-12ZM150.35,78c21.26.19,42.62,3.57,63.19,8.18a207.92,207.92,0,0,1,28.77,9.49c-24.38,5.06-48,13.38-69.6,25.89a289.35,289.35,0,0,0-32.17,4.61C140.1,109.52,142.92,93,150.35,78ZM251.76,99.76c22.54,10.43,43.51,24.35,63.14,39.79a249.85,249.85,0,0,0-41.82-11.8,361.66,361.66,0,0,0-86.76-7.1,244.55,244.55,0,0,1,43.82-16.18c7.14-1.88,14.36-3.42,21.62-4.7Zm86.15,50.1c-23.76-19.67-49.54-38-77.42-51.53,10.88-1.6,21.84-2.66,32.83-3.3,25.84-1.25,50.91-1.53,75.31,5.27,2.54,7.94,5.51,15.72,8.64,23.45,3.35,8.2,6.78,16.32,11.43,23.93-2.91-15.72-8.36-30.79-14.26-45.61a130.46,130.46,0,0,1,12.91,5c8.5,3.78,16.74,8.4,23.55,15a44.22,44.22,0,0,1-9.55,17.88c-9.51,11.45-20.62,21.25-32.4,30.24a183.3,183.3,0,0,0-31-20.28Zm20.76-56.62C342.84,76.16,325,60.46,304.2,49.7a271,271,0,0,1,50,42.64c-20-3.65-40.87-3.48-61.12-2.85A321.67,321.67,0,0,0,251,94a215.85,215.85,0,0,0-57-16.46,312.68,312.68,0,0,0-41.36-3.91,115.34,115.34,0,0,1,14.73-20.45,106,106,0,0,1,23.85-10.81,142.58,142.58,0,0,1,27.91-5.72,187.89,187.89,0,0,1,50.06,2c30.55,5.64,61.07,17.2,83.85,38.94C358.75,83,364.28,89,368.45,95.69q-4.84-1.41-9.79-2.45ZM144.61,73.59a157.77,157.77,0,0,0-40.91,5.66,97.89,97.89,0,0,1,33.8-26.77c10-4.63,20.75-7.54,31.56-10A116.41,116.41,0,0,0,144.61,73.6Zm-33.1,8.11a169.83,169.83,0,0,1,30.88-3.64,109.23,109.23,0,0,0-10.17,49.87,245.18,245.18,0,0,0-60.57,22.71c4.93-22.77,13.53-46.11,27.29-65.2a123.69,123.69,0,0,1,12.58-3.74ZM69.31,274.49c-2-.12-3.9-.28-5.83-.46-20.2-17.82-30.07-44.35-32.56-70.74-.18-3.15-.24-6.28-.23-9.4a144.24,144.24,0,0,1,29.65-26c-4.76,35.43-2.16,72.57,9,106.57Zm329,50.54c-45.41,8.89-94.37,1.9-135.61-19a208.82,208.82,0,0,1-53.87-40.36c40.56-11.56,79.25-29.77,114.54-52.79,15.4-10.2,30.66-20.36,45.21-31.63,24.73,22.05,42.21,51.55,44.94,85.55A145,145,0,0,1,408,322.61c-3.17.92-6.42,1.74-9.77,2.43Zm22.54-25.92a95.58,95.58,0,0,0,15.87-17.49c11.65-16.68,18.39-36,20.91-56,14.55,18.57,18.31,39.66,3.15,63.29a109.41,109.41,0,0,1-43.88,30.71,156.77,156.77,0,0,0,3.95-20.52ZM25.09,143.43C58.82,55.94,142.42,9.5,233.61,6.94c55.67-2.55,111.44,15.76,156.47,48.2,8.05,11.61,14.86,23.91,19.25,37.3.68,2.13,1.26,4.25,1.72,6.36-3.75-4.17-7.67-8.14-11.79-12-17.77-16-42.54-34-67.64-30.91A49,49,0,0,1,344,57.48c26,6.93,49.73,29.78,68.18,49.08a46.76,46.76,0,0,1-1.06,14.59c-5.7-7.54-13.84-13.14-22.19-17.42A114.35,114.35,0,0,0,373,97.11c-4.66-8.26-11-15.17-17.73-21.78C315.9,36.65,239.66,17.36,185.06,38c38.45-23,89.47-22.34,132.6-16.56-31.18-6.12-63.53-8.61-95-2.7C204.89,22.34,186.9,28,172.39,39.5c-.64.55-1.25,1.1-1.87,1.65a166.77,166.77,0,0,0-24.41,4C122.44,51,104.38,65.28,91,83.67A106.7,106.7,0,0,0,71.8,94a88.7,88.7,0,0,0-28.24,30.77,122.75,122.75,0,0,1,42.65-34c-11.3,17.89-18.7,38.84-22.86,59.41-.4,1.94-.77,3.88-1.13,5.83a148.77,148.77,0,0,0-31.07,24.74c.81-13.5,2.38-27,2.25-40.73-5.82,15.16-8.21,31.35-8.31,47.54A120,120,0,0,0,9,212.35a247.68,247.68,0,0,1,16.07-68.94ZM157,445.19C66.22,409.9,11.81,329.81,8.37,241c7.36,15.26,19.31,40.12,22.41,46.34,5.43,11.42,9.94,23.22,15.77,34.54a224.15,224.15,0,0,0,27.74,42.91C108.94,406.22,157.8,439,212.72,443c20.43,11.86,50.67,8,72.39,3.09,13.21-2.87,25.76-8.69,37.4-15.46,2.19-1.23,4.35-2.5,6.5-3.79,30.24-5.47,60.66-20.13,84.32-37.75,9.89-7.63,19.91-16.87,23.85-29.11-8,9.52-17.53,16.9-27.48,24.16-18.44,12.47-40.57,24.1-63.3,31.19a213.88,213.88,0,0,0,46.85-46.25A139.12,139.12,0,0,0,414,329.29c37.39-13,61.4-41.62,72.86-78.72C475.75,408.61,302.25,503,157,445.18Zm-26.82-43.26c-12.91-7.57-24.89-16.89-33.94-29-4.31-6.2-7-13.25-10.3-20-3.08-6.72-6-13.5-8.63-20.49,7.09,10.81,13.33,22.22,19.34,33.66,8.63,14.06,21.61,24.58,33.53,35.85ZM102,367.83c24.76,14.71,49.13,30.5,75.2,42.48,26.5,11.13,55.13,15.44,83.4,20.35-29.14.47-59-2.86-86.16-14.15-26.6-12.42-50.51-29.4-72.44-48.68Z"></path></svg></svg><style>@media (prefers-color-scheme: light) { :root { filter: none; } }
@media (prefers-color-scheme: dark) { :root { filter: none; } }
</style></svg>