<?xml version="1.0" encoding="utf-8"?>
<!-- Generator: Adobe Illustrator 24.2.0, SVG Export Plug-In . SVG Version: 6.00 Build 0)  -->
<svg version="1.1" id="Layer_2_1_" xmlns="http://www.w3.org/2000/svg" xmlns:xlink="http://www.w3.org/1999/xlink" x="0px" y="0px"
	 viewBox="0 0 1500 876.7" style="enable-background:new 0 0 1500 876.7;" xml:space="preserve">
<style type="text/css">
	.st0{fill:url(#SVGID_1_);}
	.st1{fill:#FFFFFF;}
	.st2{fill:url(#SVGID_2_);}
</style>
<g>
	
		<linearGradient id="SVGID_1_" gradientUnits="userSpaceOnUse" x1="796.7034" y1="755.8104" x2="665.1234" y2="308.6703" gradientTransform="matrix(1 0 0 -1 0 877.2912)">
		<stop  offset="0.1" style="stop-color:#EED0A6"/>
		<stop  offset="0.25" style="stop-color:#DAB176"/>
		<stop  offset="0.43" style="stop-color:#C79449"/>
		<stop  offset="0.56" style="stop-color:#BB812C"/>
		<stop  offset="0.64" style="stop-color:#B77B22"/>
		<stop  offset="0.67" style="stop-color:#B37721"/>
		<stop  offset="0.69" style="stop-color:#A76D20"/>
		<stop  offset="0.72" style="stop-color:#935D1E"/>
		<stop  offset="0.74" style="stop-color:#78451C"/>
		<stop  offset="0.77" style="stop-color:#552719"/>
		<stop  offset="0.77" style="stop-color:#542719"/>
	</linearGradient>
	<path class="st0" d="M727.7,113.5c-80.7,1.9-154.8,43.1-185,120.4c-11.2,28.6-16.1,57.7-15.2,85.9c0,0,0,0,0,0l0,0
		c2.5,79.4,50.9,151.2,131.7,183c133.6,53.3,293.5-38.3,293.7-187.1C953.2,199.5,839.8,109,727.7,113.5L727.7,113.5z M945.7,315.8
		c0,2.2-0.1,4.5-0.2,6.7c-3.1,8.1-6.8,15.7-11,22.7c2.1-9.9,0.8-20.5-3.8-29.5c-2.6-5.3-6.1-10.2-10-14.5
		c1.1-13.6-0.1-27.5-3.2-40.8c7,10.1,12.7,21.2,17.2,32.5c1,2.6,2,5.6,3,8.2c-2.5-15.4-8-30.5-15.5-44.2c-2.9-4.1-6-8.1-9.2-12
		c-5.2-13.9-13.3-27.2-25-36.5c5.5,7.7,10.2,16,14.1,24.6c-3.8-3.7-7.7-7.2-11.8-10.5c5.4,5.4,10.3,11.3,14.8,17.5
		c6.2,16,9.5,33,9.5,50.2c0,1.5,0,3.1-0.1,4.6c-2.2-2-4.4-3.9-6.7-5.6c-7.9-6.2-19.4-14.6-27.6-20.7c-3.2-2.4-9-6.7-12.1-9
		c-0.4-0.3-0.8-0.7-1.2-1c-0.5-0.4-1.1-0.7-1.7-0.2c-0.3,0.3-0.3,0.8-0.2,1.1c4.6,5,9,10.7,9.8,17.7c0.3,2.3,0.5,4.5,0.6,6.9
		c0.6-6.6-0.3-13.6-4-19.2c0.2,0.2,0.4,0.3,0.5,0.5c10.3,8.4,23.2,18.8,33.5,27.1c3.2,2.6,6.2,5.3,8.8,8
		c-1.7,22.8-9.5,45.6-24.9,62.6c1.6-23-2.7-46.2-13.6-65.9c-6.9-12.5-15.8-23.4-26.1-32.7c1.8-1.5,3.6-2.9,5.3-4.4
		c7.9-6.8,15.3-14.3,21.7-22.5c5-6.4,8.8-14.1,9.6-22.3c1.6-17.2-6.3-35.3-17.5-49.3C914.8,201.5,946.2,255.1,945.7,315.8
		L945.7,315.8z M808.7,473.8c-5.6,1.1-11.2,1.8-16.8,2c-21,0.4-42.2-1.7-62.5-7.1c-10.3-2.5-19.9-6.8-29.6-11.1
		c-10-4-20.6-6.9-31.3-7.5c10.2,2.9,20.1,6.7,29.7,11.3c4.8,2.3,9.5,5,14.5,7c20.6,8.7,42.9,12.3,65.1,13.1
		c-22.9,6.5-46.4,10.9-70.2,7.9c-57.6-6.1-110.5-51.2-135.7-102c-2.6-5.2-5-10.5-7.4-15.8l-2.7-21l0.7,16.3c-1.3-3-2.7-6-4.1-9
		c-1.2-2.5-4.3-8.8-7.9-16c8.2,5.9,18.2,8.8,28.5,10.3c0,0,0.1,0.1,0.2,0.1c0,0,0,0,0.1-0.1c3.1,0.5,6.2,0.8,9.2,1
		c8.1,22.8,20.8,43.9,38.6,61c46,42.8,117.3,49.4,174.5,27.1c22.3-8.6,43.5-21.3,59-39.9c3.5-0.5,6.9-1.2,10.3-2
		c1.3-0.3,2.7-0.6,4-1c-11.5,30.1-34.6,54.7-63.8,73.9C810.3,472.8,809.5,473.3,808.7,473.8L808.7,473.8z M792.1,481.6
		c1.6,0,3.2-0.1,4.7-0.3c-4.9,2.9-9.8,5.5-15.1,7.6c-17.5,6.5-36.5,10.4-55.2,8.8c-5.3-0.5-10.7-1.8-15.6-4.1c0.6,0,1.2,0.1,1.7,0.1
		c23.2,1.1,47.1-2.6,68.4-12.2C784.7,481.6,788.4,481.7,792.1,481.6L792.1,481.6z M549.3,285.4c0.1,0.9,0.1,1.9,0.2,2.8
		c2,21.6,9.6,43.4,24.7,59.3c-10.1-1.7-19.4-4.9-26.2-10.5c-4.7-9.3-9.6-19.3-12.4-24.9c1.3-4.1,2.8-8.1,4.7-12
		C542.9,294.9,545.9,290,549.3,285.4L549.3,285.4z M699.6,345.5c23.9,25.2,54.8,43.9,88.6,52c20.1,4.7,41.1,7,61.7,5.2
		c-5.8,5.9-12.4,11.2-19.3,15.8c-58.9,38.1-145.4,39.3-198.5-9.6c-16.2-15.6-28-34.5-35.8-55.2c1.2,0.1,2.3,0.1,3.4,0.2
		c20.6,0.5,41.2-0.4,61.7-3.1c12.4-1.6,24.6-4,36.7-7.1C698.5,344.2,699,344.9,699.6,345.5L699.6,345.5z M630.1,347.8
		c-9.8,0.6-22.6,1.7-35.5,1.5c-10.6-30.7-12.7-64.7-7.5-96.6c17-9.7,35.3-16.8,54.3-21.4c0.2,1.8,0.4,3.7,0.7,5.6
		c2.6,20.7,10.7,40.7,21.2,58.6c8.6,14.7,18.1,29.1,29.2,42.2C672,342.8,651.1,346.3,630.1,347.8L630.1,347.8z M692.3,324.8
		c-8.1-10.6-15.2-22.1-22.1-33.6c-6.9-11.5-12.7-23.5-16.6-36.1c-2.5-8.2-4.3-16.8-5.1-25.5c22-4.6,44.7-6.1,67-4.7
		c29.9,1.9,60,6.9,87.6,18.6c12.4,5.2,24.2,12.1,34.7,20.5c-3.9,2.8-7.9,5.6-11.9,8.3c-25.1,17.1-51,33.4-78.8,45.8
		c-15,6.8-30.5,12.5-46.3,17.1C697.9,331.8,695,328.4,692.3,324.8L692.3,324.8z M656.4,180.3c18.2,0.2,36.6,3.1,54.2,7
		c8.5,2.1,16.7,4.9,24.7,8.1c-20.9,4.3-41.2,11.5-59.7,22.2c-9.3,0.8-18.5,2.1-27.6,3.9C647.7,207.3,650.1,193.1,656.4,180.3z
		 M743.5,199c19.3,8.9,37.3,20.9,54.2,34.1c-11.7-4.4-23.8-7.8-35.9-10.1c-24.3-4.9-49.5-7.2-74.5-6.1c12-5.8,24.7-10.4,37.6-13.9
		C731,201.4,737.2,200.1,743.5,199L743.5,199z M817.4,242c-20.4-16.9-42.5-32.6-66.4-44.2c9.3-1.4,18.8-2.3,28.2-2.8
		c22.2-1.1,43.7-1.3,64.6,4.5c2.2,6.8,4.7,13.5,7.4,20.1c2.9,7,5.8,14,9.8,20.5c-2.5-13.5-7.2-26.4-12.2-39.1
		c3.7,1.2,7.4,2.6,11.1,4.3c7.3,3.2,14.4,7.2,20.2,12.8c-1.4,5.4-4.1,10.6-8.2,15.3c-8.2,9.8-17.7,18.2-27.8,26
		C835.8,252.7,826.9,246.9,817.4,242L817.4,242z M835.2,193.4c-13.6-14.6-28.9-28.1-46.7-37.4c15.8,10.3,30.1,22.8,42.9,36.6
		c-17.2-3.1-35.1-3-52.5-2.4c-12,0.5-24.1,1.8-36.1,3.8c-15.5-6.8-31.8-11.8-48.9-14.1c-11.5-1.8-23.5-3.1-35.5-3.4
		c3.5-6.2,7.8-12.2,12.6-17.6c6.4-4,13.3-7,20.5-9.3c7.6-2.5,16-4,24-4.9c14.3-1.4,28.8-0.6,43,1.8c26.2,4.8,52.4,14.8,72,33.4
		c4.8,4.7,9.6,9.8,13.2,15.5C840.9,194.7,838,194,835.2,193.4L835.2,193.4z M651.5,176.5c-12,0.2-23.8,1.6-35.1,4.9
		c7.8-9.5,17.4-17.5,29-23c8.6-4,17.8-6.5,27.1-8.6C663.7,157.9,656.7,166.9,651.5,176.5L651.5,176.5z M623.1,183.5
		c8.7-1.9,17.6-2.9,26.5-3.1c-6.2,13.1-9.1,27.4-8.7,42.8c-18,4.2-35.5,10.6-52,19.5c4.2-19.5,11.6-39.6,23.4-55.9
		C615.9,185.4,619.5,184.4,623.1,183.5L623.1,183.5z M586.9,348.9c-1.7-0.1-3.3-0.2-5-0.4c-17.3-15.3-25.8-38.1-27.9-60.7
		c-0.2-2.7-0.2-5.4-0.2-8.1c7.3-8.6,16-16,25.4-22.3C575.1,287.9,577.4,319.7,586.9,348.9L586.9,348.9z M869.2,392.3
		c-39,7.6-81,1.6-116.4-16.3c-17.2-8.9-32.8-20.7-46.2-34.6c34.8-9.9,68-25.5,98.3-45.3c13.2-8.8,26.3-17.5,38.8-27.1
		c21.2,18.9,36.2,44.2,38.6,73.4c1.6,17.2-0.2,33.2-4.7,47.9C874.8,391,872.1,391.7,869.2,392.3L869.2,392.3z M888.5,370
		c5.2-4.4,9.7-9.5,13.6-15c10-14.3,15.8-30.9,18-48.1c12.5,15.9,15.7,34,2.7,54.3c-10.1,11.5-22.5,20.6-37.7,26.4
		C886.7,381.9,887.8,376,888.5,370L888.5,370z M549,236.4c28.9-75.1,100.7-114.9,179-117.1c47.8-2.2,95.6,13.5,134.3,41.4
		c6.9,10,12.8,20.5,16.5,32c0.6,1.8,1.1,3.6,1.5,5.5c-3.2-3.6-6.6-7-10.1-10.2c-15.2-13.7-36.5-29.2-58-26.5c3.6,0,7.2,0.4,10.6,1.3
		c22.3,5.9,42.7,25.6,58.5,42.1c0.3,4.3,0.1,8.5-0.9,12.5c-4.9-6.5-11.9-11.3-19-14.9c-4.5-2.3-9-4.1-13.7-5.7
		c-4-7.1-9.5-13-15.2-18.7c-33.8-33.2-99.2-49.8-146.1-32c33-19.7,76.8-19.2,113.8-14.2c-26.8-5.2-54.5-7.4-81.5-2.3
		c-15.3,3.1-30.7,7.9-43.2,17.8c-0.5,0.5-1.1,0.9-1.6,1.4c-7,0.7-14.1,1.7-21,3.4c-20.3,5-35.8,17.3-47.3,33.1
		c-5.7,2.4-11.2,5.3-16.5,8.9c-10,6.8-18.6,15.9-24.2,26.4c9.9-12.4,22.5-22.4,36.6-29.2c-9.7,15.4-16,33.3-19.6,51
		c-0.3,1.7-0.7,3.3-1,5c-9.7,5.8-18.8,13-26.7,21.2c0.7-11.6,2-23.1,1.9-35c-5,13-7,26.9-7.1,40.8c-5.5,6.5-10.1,13.7-13.8,21.3
		C536.8,276,541.3,256.1,549,236.4L549,236.4z M662.1,495.4c-77.9-30.3-124.6-99-127.5-175.3c6.3,13.1,16.6,34.4,19.2,39.8
		c4.7,9.8,8.5,19.9,13.5,29.6c6.6,13,14.4,25.6,23.8,36.8c29.7,35.6,71.7,63.7,118.8,67.1c17.5,10.2,43.5,6.9,62.1,2.6
		c11.3-2.5,22.1-7.5,32.1-13.3c1.9-1,3.7-2.1,5.6-3.2c26-4.7,52.1-17.3,72.4-32.4c8.5-6.5,17.1-14.5,20.5-25
		c-6.9,8.2-15,14.5-23.6,20.7c-15.8,10.7-34.8,20.7-54.3,26.8c15.3-11.1,29-24.4,40.2-39.7c7.7-10.1,13.7-21.8,17.8-34.1
		c32.1-11.2,52.7-35.7,62.5-67.5C935.7,464,786.8,545,662.1,495.4L662.1,495.4z M639.1,458.3c-11.1-6.5-21.4-14.5-29.1-24.9
		c-3.7-5.3-6-11.4-8.8-17.1c-2.6-5.8-5.2-11.6-7.4-17.6c6.1,9.3,11.4,19.1,16.6,28.9C617.8,439.6,628.9,448.6,639.1,458.3
		L639.1,458.3z M615,429c21.2,12.6,42.2,26.2,64.5,36.5c22.7,9.5,47.3,13.2,71.6,17.5c-25,0.4-50.7-2.5-73.9-12.1
		C654.3,460.1,633.8,445.6,615,429L615,429z"/>
	<g>
		
			<image style="overflow:visible;enable-background:new    ;" width="681" height="682" xlink:href="97AEB816B079B189.png"  transform="matrix(0.2404 0 0 0.2404 733.5602 48.1498)">
		</image>
		
			<image style="overflow:visible;enable-background:new    ;" width="1907" height="1590" xlink:href="97AEB816B079B18B.png"  transform="matrix(0.2401 0 0 0.2401 586.56 -60.9102)">
		</image>
	</g>
	<g>
		<g>
			<path class="st1" d="M324.7,780.9L324.7,780.9c0-6.9,5.2-12.7,12.6-12.7c4.2,0,6.9,1.2,9.4,3.3l-2.7,3.2
				c-1.9-1.6-3.8-2.6-6.9-2.6c-4.5,0-7.9,3.9-7.9,8.6v0.1c0,5,3.3,8.7,8.3,8.7c2.3,0,4.4-0.7,5.9-1.8v-4.5h-6.3v-3.8h10.4v10.3
				c-2.5,2.1-5.9,3.8-10.2,3.8C329.7,793.5,324.7,788.1,324.7,780.9L324.7,780.9z"/>
			<path class="st1" d="M362.2,768.6h4.3v20.5h12.9v3.9h-17.2L362.2,768.6L362.2,768.6z"/>
			<path class="st1" d="M391.7,780.9L391.7,780.9c0-6.9,5.3-12.7,12.8-12.7s12.8,5.7,12.8,12.6v0.1c0,6.8-5.3,12.7-12.8,12.7
				S391.7,787.8,391.7,780.9z M412.8,780.9L412.8,780.9c0-4.8-3.4-8.7-8.3-8.7s-8.2,3.8-8.2,8.6v0.1c0,4.8,3.4,8.7,8.3,8.7
				S412.8,785.7,412.8,780.9z"/>
			<path class="st1" d="M432.3,768.6h11c2.8,0,5,0.7,6.4,2.2c1.1,1.1,1.6,2.5,1.6,4.1v0.1c0,3-1.7,4.5-3.5,5.5
				c2.9,1,4.9,2.6,4.9,5.9v0.1c0,4.4-3.6,6.7-9,6.7h-11.3L432.3,768.6L432.3,768.6z M447,775.6c0-2-1.5-3.1-4.3-3.1h-6.2v6.5h5.9
				C445.2,778.9,447,777.9,447,775.6L447,775.6L447,775.6z M448.4,785.9c0-2.1-1.6-3.3-5-3.3h-6.8v6.7h7.1
				C446.6,789.3,448.4,788.2,448.4,785.9L448.4,785.9z"/>
			<path class="st1" d="M475.2,768.5h4l10.8,24.6h-4.5l-2.5-5.9h-11.6l-2.5,5.9h-4.4L475.2,768.5L475.2,768.5z M481.3,783.4
				l-4.2-9.8l-4.2,9.8H481.3z"/>
			<path class="st1" d="M502.5,768.6h4.3v20.5h12.9v3.9h-17.2L502.5,768.6L502.5,768.6z"/>
			<path class="st1" d="M554.2,768.6h9.7c5.7,0,9.3,3.2,9.3,8.2v0.1c0,5.5-4.4,8.3-9.8,8.3h-4.9v7.9h-4.3L554.2,768.6L554.2,768.6z
				 M563.5,781.4c3.2,0,5.3-1.8,5.3-4.4v-0.1c0-2.9-2.1-4.4-5.3-4.4h-5v8.8H563.5z"/>
			<path class="st1" d="M587.3,768.6h10.9c3.1,0,5.5,0.9,7.1,2.5c1.3,1.4,2,3.2,2,5.3v0.1c0,4-2.4,6.4-5.8,7.4l6.6,9.3H603l-6-8.5
				h-5.4v8.5h-4.3L587.3,768.6L587.3,768.6z M597.9,780.8c3.1,0,5-1.6,5-4.1v-0.1c0-2.7-1.8-4.1-5.1-4.1h-6.3v8.2L597.9,780.8
				L597.9,780.8z"/>
			<path class="st1" d="M621.3,780.9L621.3,780.9c0-6.9,5.3-12.7,12.8-12.7s12.8,5.7,12.8,12.6v0.1c0,6.8-5.3,12.7-12.8,12.7
				S621.3,787.8,621.3,780.9z M642.4,780.9L642.4,780.9c0-4.8-3.4-8.7-8.3-8.7s-8.2,3.8-8.2,8.6v0.1c0,4.8,3.4,8.7,8.3,8.7
				S642.4,785.7,642.4,780.9z"/>
			<path class="st1" d="M661.2,768.6h9.7c5.7,0,9.3,3.2,9.3,8.2v0.1c0,5.5-4.4,8.3-9.8,8.3h-4.9v7.9h-4.3L661.2,768.6L661.2,768.6z
				 M670.5,781.4c3.2,0,5.3-1.8,5.3-4.4v-0.1c0-2.9-2.1-4.4-5.3-4.4h-5v8.8H670.5z"/>
			<path class="st1" d="M695,768.6h18.1v3.8h-13.8v6.4h12.3v3.9h-12.3v6.5h14v3.8H695V768.6L695,768.6z"/>
			<path class="st1" d="M727.5,768.6h10.9c3.1,0,5.5,0.9,7.1,2.5c1.3,1.4,2,3.2,2,5.3v0.1c0,4-2.4,6.4-5.8,7.4l6.6,9.3h-5.1l-6-8.5
				h-5.4v8.5h-4.3L727.5,768.6L727.5,768.6z M738.1,780.8c3.1,0,5-1.6,5-4.1v-0.1c0-2.7-1.8-4.1-5.1-4.1h-6.3v8.2L738.1,780.8
				L738.1,780.8z"/>
			<path class="st1" d="M767.1,772.6h-7.8v-4h19.9v4h-7.8v20.5h-4.3L767.1,772.6L767.1,772.6z"/>
			<path class="st1" d="M798.6,783.5l-9.7-14.8h5.1l6.8,10.8l6.9-10.8h4.9l-9.7,14.7v9.8h-4.3V783.5L798.6,783.5z"/>
			<path class="st1" d="M843.2,768.6h4.3v24.5h-4.3V768.6z"/>
			<path class="st1" d="M863.1,768.6h4l13.1,16.9v-16.9h4.2v24.5h-3.6l-13.5-17.4v17.4h-4.2V768.6z"/>
			<path class="st1" d="M906.5,772.6h-7.8v-4h19.9v4h-7.8v20.5h-4.3L906.5,772.6L906.5,772.6z"/>
			<path class="st1" d="M932.9,768.6H951v3.8h-13.8v6.4h12.3v3.9h-12.3v6.5h14v3.8h-18.3L932.9,768.6L932.9,768.6z"/>
			<path class="st1" d="M965.4,768.6h4.3v20.5h12.9v3.9h-17.2V768.6L965.4,768.6z"/>
			<path class="st1" d="M994.7,768.6h4.3v20.5h12.9v3.9h-17.2V768.6L994.7,768.6z"/>
			<path class="st1" d="M1025.6,768.6h4.3v24.5h-4.3V768.6z"/>
			<path class="st1" d="M1044.4,780.9L1044.4,780.9c0-6.9,5.2-12.7,12.6-12.7c4.2,0,6.9,1.2,9.4,3.3l-2.7,3.2
				c-1.9-1.6-3.8-2.6-6.8-2.6c-4.5,0-7.9,3.9-7.9,8.6v0.1c0,5,3.3,8.7,8.3,8.7c2.3,0,4.4-0.7,5.9-1.8v-4.5h-6.3v-3.8h10.4v10.3
				c-2.4,2.1-5.9,3.8-10.2,3.8C1049.5,793.5,1044.4,788.1,1044.4,780.9L1044.4,780.9z"/>
			<path class="st1" d="M1082.7,768.6h18.1v3.8H1087v6.4h12.3v3.9H1087v6.5h14v3.8h-18.3L1082.7,768.6L1082.7,768.6z"/>
			<path class="st1" d="M1115.9,768.6h4l13.1,16.9v-16.9h4.2v24.5h-3.6l-13.5-17.4v17.4h-4.2V768.6z"/>
			<path class="st1" d="M1152.9,780.9L1152.9,780.9c0-7,5.2-12.7,12.6-12.7c4.5,0,7.3,1.6,9.6,3.8l-2.8,3.2c-2-1.8-4.1-3-6.9-3
				c-4.6,0-8,3.8-8,8.6v0.1c0,4.8,3.4,8.7,8.1,8.7c3,0,4.9-1.2,7-3.2l2.8,2.8c-2.5,2.7-5.4,4.3-9.9,4.3
				C1158.2,793.5,1152.9,788,1152.9,780.9L1152.9,780.9z"/>
			<path class="st1" d="M1189.6,768.6h18.1v3.8h-13.8v6.4h12.3v3.9h-12.3v6.5h14v3.8h-18.3L1189.6,768.6L1189.6,768.6z"/>
		</g>
		
			<linearGradient id="SVGID_2_" gradientUnits="userSpaceOnUse" x1="750.3591" y1="279.9613" x2="749.6091" y2="174.6513" gradientTransform="matrix(1 0 0 -1 0 877.2912)">
			<stop  offset="0" style="stop-color:#F9CDA0"/>
			<stop  offset="0.16" style="stop-color:#F9CDA0"/>
			<stop  offset="0.24" style="stop-color:#EFC293"/>
			<stop  offset="0.45" style="stop-color:#D7A873"/>
			<stop  offset="0.65" style="stop-color:#C6955B"/>
			<stop  offset="0.84" style="stop-color:#BC894D"/>
			<stop  offset="1" style="stop-color:#B98649"/>
		</linearGradient>
		<path class="st2" d="M407.1,597.8v1.8l0,0c-3.1,1.2-5.7,3.5-7.2,6.4l-48.9,92.8L298.8,606c-2-3.1-6.1-5.8-9.4-6.4v-1.7h33.8v2.1
			c0,0-6.2,0.9-4.5,5.6l36.6,69.2l33.2-68.3c1.3-2.7-0.2-5.8-3.1-6.5l-1.3-0.3v-1.8L407.1,597.8L407.1,597.8z M649.2,597.8v1.6
			l3.3,2.4c2.4,1.7,3.8,4.5,3.8,7.4l0,60.5l-76.5-71.9h-22.3l0.1,2.3l6.6,4.1c3.8,2,6.2,5.9,6.2,10.2v73.7c0,4.2-3.1,7.7-7.3,8.2
			l0,0v2.3h25.4V696l0,0c-3.6-0.4-6.3-3.4-6.3-7v-67.5l79.6,77.2h5.8V608c0-3.2,1.8-6.1,4.7-7.5l2.3-1.1v-1.6H649.2L649.2,597.8z
			 M703.8,597.8v19.2h2.6l6-11.7h32.5v81.7c0,3.9-3,7.2-6.9,7.6l-0.2,0v2.1H770v-2.1l-2.3-0.2c-2.6-0.2-4.6-2.4-4.6-5v-84H792
			c8.7,2.9,12.2,13.8,12.2,13.8h2v-21.5L703.8,597.8L703.8,597.8z M931,675.9l-13.4,13.3H865v-40h35.3c3.2,0,6.1,1.8,7.5,4.6
			l1.3,2.5h1.5v-17.2h-1.9c0,0-3.6,4.9-8.2,4.8h-35.3v-38.5h48.2l8.3,11.5h1.8v-19.3h-86.9l0.1,2.2l5.8,2.6c2.2,1,3.7,3.2,3.7,5.7
			v78c0,2.9-1.6,5.5-4.2,6.8l-1.8,0.9v2.5h84.3l8.5-20.7L931,675.9L931,675.9z M1069.8,695.2v2.5h-24.6
			c-7.1-8.4-32.6-37.2-41.3-44.3H992v35c0,1.7,0.6,3.3,1.6,4.5c1,1.2,2.4,2.2,4,2.5v2.2h-31.5v-2c4.5-1.1,7.7-5.1,7.7-9.7v-76.2
			c0-3.3-2-6.3-5-7.6l-5.5-2.3v-1.2h65c4.3,0,8.5,0.9,12.4,2.6c3.9,1.7,7.3,4.2,10.2,7.3c4,4.4,6.6,10.1,7.3,16.1
			c0.8,7.1-1.2,14.5-6.2,19.8c-4.4,4.7-10.6,7.5-16.8,8.9c-2,0.4-3.9,0.8-5.9,1c-0.3,0-2,0.4-2.3,0.2c0.6,0.6,9.8,10,19.8,21.9
			C1057.1,688.8,1061.7,695.2,1069.8,695.2L1069.8,695.2z M1019.1,648.7c5.9,0,11.3-2.4,15.2-6.3c3.9-3.9,6.3-9.3,6.3-15.2
			c0-11.9-9.6-21.5-21.5-21.5h-26.8v43.1H1019.1z M1210.6,694.4v3.3h-35.8v-2.3l3.5-0.5c2.4-0.3,3.7-2.9,2.6-5l-11.7-22.8h-51.3
			l-11.5,23.4c-0.8,1.7,0.2,3.8,2.1,4.1l1.6,0.3v3h-22.8v-1.8c3.2-1.4,5.9-3.8,7.6-6.9l43.9-80c0.3-0.6,0.5-1.3,0.5-2
			c0-0.8-0.3-1.6-0.8-2.3c-0.8-1.1-1.7-2.2-2.7-3.2l-1.8-1.8h18.7l51.3,91.1c1.1,1.9,3,3.2,5.1,3.5L1210.6,694.4L1210.6,694.4z
			 M1165.9,660l-21.6-40.4l-22.9,40.4H1165.9z M537.4,694.4v3.3h-35.8v-2.3l3.5-0.5c2.4-0.3,3.7-2.9,2.6-5L495.9,667h-51.3
			l-11.5,23.4c-1.5,5.1,3.7,5.2,3.7,5.2v2.1h-22.8v-1.8c3.2-1.4,5.9-3.8,7.5-6.9l43.9-80c0.3-0.6,0.5-1.3,0.5-2
			c0-0.8-0.3-1.6-0.8-2.3c-0.8-1.1-1.7-2.2-2.7-3.2l-1.8-1.8h18.7l51.3,91.1c1.1,1.9,3,3.2,5.1,3.5L537.4,694.4L537.4,694.4z
			 M492.7,660L471,619.6L448.2,660H492.7z M323.2,597.8v1.6c0,0-6.2,1.5-4.5,6.1L323.2,597.8z"/>
	</g>
</g>
</svg>
